REM DIRINDEX 1\2\5,1\2\6,1\2\7,1\2\8,1\3\9,1\3\10,1\3\11,1\4\12,1\4\13,1\4\14,1\4\15,1\4\16
REM DIRNAME cjc034,folder01,folder02,folder03,folder04,folder05,folder06,folder07,folder08,folder09,folder10,folder11,folder12,folder13,folder14,folder15
TITLE ""
FILE "1200_2_sec01_0177_0200.mp3" MP3
  TRACK 01 AUDIO
    TITLE "0:"
    INDEX 01 00:00:00
  TRACK 02 AUDIO
    TITLE "10:cjc034_00361"
    INDEX 01 00:00:19
  TRACK 03 AUDIO
    TITLE "0:"
    INDEX 01 00:02:47
  TRACK 04 AUDIO
    TITLE "9:cjc034_00362"
    INDEX 01 00:02:55
  TRACK 05 AUDIO
    TITLE "0:"
    INDEX 01 00:03:68
  TRACK 06 AUDIO
    TITLE "10:cjc034_00363"
    INDEX 01 00:04:52
  TRACK 07 AUDIO
    TITLE "0:"
    INDEX 01 00:07:35
  TRACK 08 AUDIO
    TITLE "9:cjc034_00364"
    INDEX 01 00:07:39
  TRACK 09 AUDIO
    TITLE "0:"
    INDEX 01 00:08:44
  TRACK 10 AUDIO
    TITLE "10:cjc034_00365"
    INDEX 01 00:09:28
  TRACK 11 AUDIO
    TITLE "0:"
    INDEX 01 00:12:14
  TRACK 12 AUDIO
    TITLE "9:cjc034_00366"
    INDEX 01 00:12:20
  TRACK 13 AUDIO
    TITLE "0:"
    INDEX 01 00:13:26
  TRACK 14 AUDIO
    TITLE "10:cjc034_00367"
    INDEX 01 00:14:11
  TRACK 15 AUDIO
    TITLE "0:"
    INDEX 01 00:15:27
  TRACK 16 AUDIO
    TITLE "9:cjc034_00368"
    INDEX 01 00:15:32
  TRACK 17 AUDIO
    TITLE "0:"
    INDEX 01 00:16:38
  TRACK 18 AUDIO
    TITLE "11:cjc034_00369"
    INDEX 01 00:18:15
  TRACK 19 AUDIO
    TITLE "0:"
    INDEX 01 00:19:20
  TRACK 20 AUDIO
    TITLE "10:cjc034_00370"
    INDEX 01 00:20:24
  TRACK 21 AUDIO
    TITLE "0:"
    INDEX 01 00:23:08
  TRACK 22 AUDIO
    TITLE "9:cjc034_00371"
    INDEX 01 00:23:12
  TRACK 23 AUDIO
    TITLE "0:"
    INDEX 01 00:24:29
  TRACK 24 AUDIO
    TITLE "10:cjc034_00372"
    INDEX 01 00:25:11
  TRACK 25 AUDIO
    TITLE "0:"
    INDEX 01 00:26:18
  TRACK 26 AUDIO
    TITLE "9:cjc034_00373"
    INDEX 01 00:26:28
  TRACK 27 AUDIO
    TITLE "0:"
    INDEX 01 00:27:53
  TRACK 28 AUDIO
    TITLE "10:cjc034_00374"
    INDEX 01 00:28:33
  TRACK 29 AUDIO
    TITLE "0:"
    INDEX 01 00:29:46
  TRACK 30 AUDIO
    TITLE "9:cjc034_00375"
    INDEX 01 00:29:48
  TRACK 31 AUDIO
    TITLE "0:"
    INDEX 01 00:30:59
  TRACK 32 AUDIO
    TITLE "10:cjc034_00376"
    INDEX 01 00:31:41
  TRACK 33 AUDIO
    TITLE "0:"
    INDEX 01 00:32:52
  TRACK 34 AUDIO
    TITLE "9:cjc034_00377"
    INDEX 01 00:32:54
  TRACK 35 AUDIO
    TITLE "0:"
    INDEX 01 00:33:56
  TRACK 36 AUDIO
    TITLE "10:cjc034_00378"
    INDEX 01 00:34:43
  TRACK 37 AUDIO
    TITLE "0:"
    INDEX 01 00:35:35
  TRACK 38 AUDIO
    TITLE "9:cjc034_00379"
    INDEX 01 00:35:39
  TRACK 39 AUDIO
    TITLE "0:"
    INDEX 01 00:36:44
  TRACK 40 AUDIO
    TITLE "10:cjc034_00380"
    INDEX 01 00:37:30
  TRACK 41 AUDIO
    TITLE "0:"
    INDEX 01 00:38:43
  TRACK 42 AUDIO
    TITLE "9:cjc034_00381"
    INDEX 01 00:38:45
  TRACK 43 AUDIO
    TITLE "0:"
    INDEX 01 00:39:56
  TRACK 44 AUDIO
    TITLE "10:cjc034_00382"
    INDEX 01 00:40:38
  TRACK 45 AUDIO
    TITLE "0:"
    INDEX 01 00:42:39
  TRACK 46 AUDIO
    TITLE "9:cjc034_00383"
    INDEX 01 00:42:45
  TRACK 47 AUDIO
    TITLE "0:"
    INDEX 01 00:43:54
  TRACK 48 AUDIO
    TITLE "10:cjc034_00384"
    INDEX 01 00:44:38
  TRACK 49 AUDIO
    TITLE "0:"
    INDEX 01 00:45:47
  TRACK 50 AUDIO
    TITLE "9:cjc034_00385"
    INDEX 01 00:45:57
  TRACK 51 AUDIO
    TITLE "0:"
    INDEX 01 00:46:68
  TRACK 52 AUDIO
    TITLE "10:cjc034_00386"
    INDEX 01 00:47:54
  TRACK 53 AUDIO
    TITLE "0:"
    INDEX 01 00:48:63
  TRACK 54 AUDIO
    TITLE "9:cjc034_00387"
    INDEX 01 00:48:65
  TRACK 55 AUDIO
    TITLE "0:"
    INDEX 01 00:50:13
  TRACK 56 AUDIO
    TITLE "10:cjc034_00388"
    INDEX 01 00:50:70
  TRACK 57 AUDIO
    TITLE "0:"
    INDEX 01 00:52:00
  TRACK 58 AUDIO
    TITLE "9:cjc034_00389"
    INDEX 01 00:52:06
  TRACK 59 AUDIO
    TITLE "0:"
    INDEX 01 00:53:17
  TRACK 60 AUDIO
    TITLE "10:cjc034_00390"
    INDEX 01 00:54:05
  TRACK 61 AUDIO
    TITLE "0:"
    INDEX 01 00:56:31
  TRACK 62 AUDIO
    TITLE "9:cjc034_00391"
    INDEX 01 00:56:33
  TRACK 63 AUDIO
    TITLE "0:"
    INDEX 01 00:57:41
  TRACK 64 AUDIO
    TITLE "10:cjc034_00392"
    INDEX 01 00:58:26
  TRACK 65 AUDIO
    TITLE "0:"
    INDEX 01 00:59:65
  TRACK 66 AUDIO
    TITLE "9:cjc034_00393"
    INDEX 01 00:59:67
  TRACK 67 AUDIO
    TITLE "0:"
    INDEX 01 01:01:03
  TRACK 68 AUDIO
    TITLE "11:cjc034_00394"
    INDEX 01 01:02:54
  TRACK 69 AUDIO
    TITLE "0:"
    INDEX 01 01:04:05
  TRACK 70 AUDIO
    TITLE "10:cjc034_00395"
    INDEX 01 01:05:15
  TRACK 71 AUDIO
    TITLE "0:"
    INDEX 01 01:07:68
  TRACK 72 AUDIO
    TITLE "9:cjc034_00396"
    INDEX 01 01:07:74
  TRACK 73 AUDIO
    TITLE "0:"
    INDEX 01 01:09:14
  TRACK 74 AUDIO
    TITLE "10:cjc034_00397"
    INDEX 01 01:09:73
  TRACK 75 AUDIO
    TITLE "0:"
    INDEX 01 01:11:64
  TRACK 76 AUDIO
    TITLE "9:cjc034_00398"
    INDEX 01 01:11:68
  TRACK 77 AUDIO
    TITLE "0:"
    INDEX 01 01:13:02
  TRACK 78 AUDIO
    TITLE "10:cjc034_00399"
    INDEX 01 01:13:59
  TRACK 79 AUDIO
    TITLE "0:"
    INDEX 01 01:15:33
  TRACK 80 AUDIO
    TITLE "9:cjc034_00400"
    INDEX 01 01:15:39
  TRACK 81 AUDIO
    TITLE "0:"
    INDEX 01 01:16:50
  TRACK 82 AUDIO
    TITLE "11:cjc034_00401"
    INDEX 01 01:18:25
  TRACK 83 AUDIO
    TITLE "0:"
    INDEX 01 01:19:38
  TRACK 84 AUDIO
    TITLE "10:cjc034_00402"
    INDEX 01 01:20:44
  TRACK 85 AUDIO
    TITLE "0:"
    INDEX 01 01:24:26
  TRACK 86 AUDIO
    TITLE "9:cjc034_00403"
    INDEX 01 01:24:36
  TRACK 87 AUDIO
    TITLE "0:"
    INDEX 01 01:25:66
  TRACK 88 AUDIO
    TITLE "10:cjc034_00404"
    INDEX 01 01:26:50
  TRACK 89 AUDIO
    TITLE "0:"
    INDEX 01 01:28:14
  TRACK 90 AUDIO
    TITLE "9:cjc034_00405"
    INDEX 01 01:28:20
  TRACK 91 AUDIO
    TITLE "0:"
    INDEX 01 01:29:35
  TRACK 92 AUDIO
    TITLE "10:cjc034_00406"
    INDEX 01 01:30:18
  TRACK 93 AUDIO
    TITLE "0:"
    INDEX 01 01:32:00
  TRACK 94 AUDIO
    TITLE "9:cjc034_00407"
    INDEX 01 01:32:02
  TRACK 95 AUDIO
    TITLE "0:"
    INDEX 01 01:33:23
  TRACK 96 AUDIO
    TITLE "10:cjc034_00408"
    INDEX 01 01:34:08
  TRACK 97 AUDIO
    TITLE "0:"
    INDEX 01 01:35:69
  TRACK 98 AUDIO
    TITLE "9:cjc034_00409"
    INDEX 01 01:36:00
  TRACK 99 AUDIO
    TITLE "0:"
    INDEX 01 01:37:11
  TRACK 100 AUDIO
    TITLE "10:cjc034_00410"
    INDEX 01 01:37:71
  TRACK 101 AUDIO
    TITLE "0:"
    INDEX 01 01:39:61
  TRACK 102 AUDIO
    TITLE "9:cjc034_00411"
    INDEX 01 01:39:63
  TRACK 103 AUDIO
    TITLE "0:"
    INDEX 01 01:40:68
